<?xml version="1.0" encoding="UTF-8"?>
<svg id="Capa_1" xmlns="http://www.w3.org/2000/svg" version="1.1" viewBox="0 0 311 123">
  <!-- Generator: Adobe Illustrator 30.6.0, SVG Export Plug-In . SVG Version: 2.1.4 Build 109)  -->
  <defs>
    <style>
      .st0, .st1, .st2 {
        fill-rule: evenodd;
      }

      .st0, .st3 {
        fill: #fff;
      }

      .st1 {
        fill: #1d326c;
      }

      .st2 {
        fill: #cd2026;
      }
    </style>
  </defs>
  <g>
    <path class="st0" d="M61.5.2c33.9-.2,61.3,27.1,61.3,61s-27.5,61.5-61.3,61.7C27.6,123,.2,95.7.2,61.8S27.6.4,61.5.2Z"/>
    <g>
      <g>
        <path class="st1" d="M61.5,13.4c26.6-.1,48.1,21.3,48.1,47.9s-21.5,48.2-48.1,48.4c-26.6.1-48.1-21.3-48.1-47.9S34.9,13.5,61.5,13.4Z"/>
        <polygon class="st0" points="48 26.2 60.1 18.8 60.1 29.8 49.1 36.4 34.2 36.5 34.2 26.4 48 26.2"/>
        <polygon class="st2" points="36.6 28.4 36.6 34.4 48.6 34.3 58.1 28.7 58.1 22.5 48.6 28.2 36.6 28.4"/>
        <polygon class="st0" points="34.2 40.3 48.6 40.2 60.1 33.6 60.1 31.6 48.6 38.1 34.2 38.2 34.2 40.3"/>
        <polygon class="st0" points="34.2 44.5 48.6 44.4 60.1 37.9 60.1 35.8 48.6 42.4 34.2 42.5 34.2 44.5"/>
        <polygon class="st0" points="48.7 61.1 64.3 69.8 64.3 79.1 61.2 80.7 58.1 79.1 58.1 73.2 48.7 68 48.7 82.9 60.5 89.4 60.5 104.2 34.6 89.7 34.6 60.2 32.2 60.2 32.2 46 48.7 46 48.7 61.1"/>
        <polygon class="st2" points="34.2 48.1 36.6 48.1 46.6 48 46.6 58 46.6 62.4 62.2 71 62.2 77.8 61.2 78.4 60.1 77.8 60.1 72 46.6 64.4 46.6 84.2 58.4 90.7 58.4 100.6 36.6 88.5 36.6 58.1 34.2 58.1 34.2 48.1"/>
        <polygon class="st0" points="64.3 53.9 74.3 59.5 74.3 45.8 90.8 45.7 90.8 59.8 88.4 59.9 88.4 89.4 62.5 104.2 62.5 89.4 74.3 82.8 74.3 66.3 58.1 57.3 58.1 48.1 61.2 46.4 64.3 48 64.3 53.9"/>
        <polygon class="st2" points="62.2 49.3 62.2 55.2 76.3 63 76.3 57.9 76.3 47.9 86.3 47.8 88.7 47.8 88.7 57.8 86.3 57.8 86.3 88.2 64.6 100.6 64.6 90.6 76.3 84 76.3 65.4 76 64.9 60.1 56.1 60.1 49.3 61.2 48.8 62.2 49.3"/>
        <polygon class="st0" points="74.3 26 62.2 18.8 62.2 29.8 73.2 36.3 88.1 36.2 88.1 26.1 74.3 26"/>
        <polygon class="st2" points="85.7 28.2 85.7 34.1 73.7 34.2 64.2 28.6 64.2 22.4 73.7 28.1 85.7 28.2"/>
        <polygon class="st0" points="88.1 40 73.7 40.1 62.2 33.6 62.2 31.6 73.7 38 88.1 37.9 88.1 40"/>
        <polygon class="st0" points="88.1 44.2 73.7 44.3 62.2 37.9 62.2 35.8 73.7 42.2 88.1 42.2 88.1 44.2"/>
        <path class="st1" d="M22.9,89l-9.5,9.5c11.1,14.4,28.5,23.6,48.1,23.5,19.6-.1,37-9.5,48.1-24l-9.5-9.4.5-.5,9.4,9.3c7.6-10.1,12-22.7,12-36.3C122,27.7,94.9.8,61.5,1,28.1,1.1,1,28.4,1,61.8s4.5,26.1,12,36.2l9.4-9.5.5.5h0ZM61.5,0c34-.2,61.5,27.2,61.5,61.1s-27.5,61.6-61.5,61.8C27.5,123.2,0,95.8,0,61.8S27.5.2,61.5,0Z"/>
        <path class="st1" d="M4.6,57.3h-.2s.1-1.9.1-1.9h.2s0,.7,0,.7l5.6.4c.3,0,.5.1.7.3.2.2.3.4.4.7,0,.3.1.6.1.8,0,.3,0,.6-.2.9-.1.3-.2.6-.4.8-.3.4-.7.5-1.2.5l-4.9-.3c-.3,0-.5.2-.6.8h-.2s.2-2.3.2-2.3h.2s0,.7,0,.7l5.5.4c.4,0,.7,0,1-.4.3-.3.4-.6.4-1.1,0-.4,0-.7-.3-1-.2-.3-.5-.4-.9-.4l-5-.4c-.3,0-.5.2-.5.6v.2h0ZM11.7,54.4v-.7c.1,0-5.4-1-5.4-1-.3,0-.5,0-.7,0-.2,0-.4.3-.5.8h-.2s.2-1.2.2-1.2l6.3-2.2h0s-4.8-.9-4.8-.9c-.2,0-.4,0-.5.2-.2.1-.3.3-.3.6h-.2s.3-1.8.3-1.8h.2s-.1.6-.1.6l7.1,1.2v.2s-6.4,2.3-6.4,2.3h0s4.4.8,4.4.8c.3,0,.6,0,.7-.2.1-.1.2-.3.2-.6h.2s-.3,2-.3,2h-.2ZM13,47.8l.2-.7-5.9-1.6c-.2,0-.3,0-.4.1-.1.1-.2.3-.3.6h-.2c0,0,.6-2.2.6-2.2h.2c0,0-.2.8-.2.8l5.8,1.6c.2,0,.3,0,.4,0,.1,0,.2,0,.3-.1,0,0,.1-.3.2-.6h.2c0,0-.6,2.3-.6,2.3h-.2ZM14.9,40.5l-4-3.4c-.2-.1-.3-.2-.3-.2-.2,0-.3,0-.5,0-.1.1-.2.3-.3.5h0c0,.1-.2,0-.2,0l.9-2h.2c0,0-.3.7-.3.7l5.7,4.8v.2c-.1,0-6.5-.4-6.5-.4-.4,0-.7,0-.9,0-.2,0-.3,0-.4.2,0,0-.2.2-.2.4v.2c-.1,0-.3,0-.3,0l1-2.3h.2c0,0-.4.9-.4.9l6.3.4h0ZM19.5,33.8l.4.2v-.2c.1,0-2.1-1.3-2.1-1.3v.2c-.1,0,.4.3.4.3.3.2.5.4.6.6.1.2.1.5,0,.9-.2.4-.4.9-.7,1.4l-4-2.3c.1-.2.2-.4.3-.5.2-.2.4-.2.6-.2.2,0,.5.2.7.3v-.2c0,0-2.1-1.3-2.1-1.3v.2c0,0,.8.5.8.5l-.5,1-1.5-.9.2-.3c.4-.7.7-1.1,1-1.3.3-.2.7-.2,1.2.1l.3.2v-.2c.1,0-1.9-1.2-1.9-1.2v.2c-.1,0,.3.2.3.2l-2,3.5h.2c.1-.1.3-.3.4-.4.1,0,.3,0,.5,0l5.3,3-.4.7h.2c0,0,2-3.3,2-3.3h0ZM15,27.6l1-1.2.5.4c.2-.9.5-1.7,1-2.3.4-.5.9-.8,1.5-1.1.6-.3,1.1-.4,1.7-.4.6,0,1,.2,1.4.5.4.4.7.8.8,1.4.1.5,0,1.1,0,1.7-.2.6-.5,1.2-.9,1.7h0c.2,0,.5-.2,1-.5.5-.2.9-.5,1.2-.7.3-.2.6-.4.8-.7.2-.2.3-.4.3-.5h.1c0,.3-.2.6-.4.9-.2.2-.5.5-.7.7-.3.2-.5.4-.7.5-.2.1-.6.4-1.1.7-1,.5-1.8.9-2.5,1.2l.7.6c.1.1.2.2.3.2,0,0,.2,0,.2,0,.1-.1.2-.2.3-.3,0,0,.1-.2.2-.3h.1c0,.1-1.7,2.1-1.7,2.1h-.1c0-.1.5-.7.5-.7l-4.7-4c-.2-.2-.5-.1-.8.2h0c0,0-.1,0-.1,0h0ZM16.9,27.2l2.9,2.5v-.2c.9-.3,1.7-.8,2.1-1.3.3-.4.6-.8.7-1.3.1-.5.1-1,0-1.4-.1-.5-.4-.8-.7-1.1-.4-.3-.8-.5-1.3-.5-.5,0-1,0-1.5.2-.5.2-1,.5-1.4,1-.6.7-.8,1.4-.8,2.2h0ZM25.2,16.4l-.2.2.3.3c-.4.2-.6.3-.8.4-.4.3-.6.7-.7,1.2-.1.4,0,.8.2,1.1.2.2.4.4.7.4.3,0,.6,0,.9,0,.3,0,.7-.2,1.1-.3.5-.1.9-.2,1.2-.3.3,0,.6,0,.9,0,.3,0,.5.2.7.4.2.3.4.6.4,1,0,.4,0,.8-.3,1.2-.2.4-.5.8-.8,1.1-.4.3-.8.6-1.3.7-.4.1-.9.1-1.2,0-.4-.1-.7-.3-1-.6-.2-.2-.3-.4-.3-.7,0-.3,0-.6,0-.8,0-.3.2-.5.5-.7.2-.1.3-.2.5-.3.2,0,.4,0,.5,0,.2,0,.3.1.4.2.2.2.2.5,0,.8v.2c.2,0,.3-.1.4-.2.2-.2.3-.4.3-.6,0-.2,0-.4-.2-.6-.2-.2-.3-.3-.6-.3-.2,0-.5,0-.8.1-.3.1-.5.2-.7.4-.3.3-.5.6-.7,1-.1.4-.2.7-.2,1.1,0,.4.2.7.4,1,.3.3.7.6,1.1.6.4,0,.9,0,1.4-.1.5-.2.9-.5,1.4-.8.3-.3.6-.6.8-1,.2-.4.4-.7.5-1.1.1-.4.1-.7,0-1.1,0-.3-.2-.6-.4-.9-.2-.3-.5-.4-.8-.5-.3,0-.7,0-1,0-.4,0-.8.2-1.3.3-.5.1-.8.2-1.1.3-.3,0-.5,0-.8,0-.2,0-.5-.1-.6-.3-.1-.1-.2-.3-.2-.5,0-.2,0-.4,0-.5,0-.2.2-.3.4-.5.3-.3.7-.4,1-.3.3.1.6.4.9.7l.4.5.2-.2-1.8-2.1h0ZM32.4,20.2l.6-.4-3.6-5c-.1-.2-.3-.2-.4-.2-.2,0-.3.1-.6.3v-.2c-.1,0,1.7-1.3,1.7-1.3v.2c.1,0-.5.4-.5.4l3.5,4.9c.1.1.2.2.2.3,0,0,.2.1.3,0,.1,0,.3-.1.6-.3v.2c.1,0-1.7,1.3-1.7,1.3v-.2h-.1ZM35.4,18v.2c0,0,2.6-1.3,2.6-1.3.6-.3,1.1-.6,1.5-1,.4-.3.7-.7.9-1s.4-.7.5-1c.3-.9.3-1.8-.1-2.6-.1-.3-.3-.5-.6-.7s-.5-.4-.8-.5c-.3-.1-.6-.3-.9-.3-.5,0-1,0-1.5,0-.5,0-1.1.3-1.7.6l-3.1,1.6v.2c0,0,.2,0,.2,0,.4-.2.7-.2.8.1l2.8,5.4-.7.4h0ZM40.1,11.7c-.3-.5-.7-.9-1.2-1.1-.5-.3-1.1-.4-1.8-.4-.7,0-1.3.2-1.9.5-.7.4-1.2.7-1.5,1l2.8,5.4c.5,0,1.1-.3,1.8-.7.6-.3,1.1-.7,1.5-1.3.4-.5.6-1.1.6-1.7,0-.6,0-1.2-.3-1.7h0ZM48.3,12.5l-2.8-3.7-1,.3v3.2c0,.3,0,.6,0,.8,0,.2.1.3.2.3.1,0,.3,0,.5,0,.1,0,.3,0,.5-.1v.2c0,0-2.1.6-2.1.6v-.2c0,0,.5-.2.5-.2v-7.5s.2,0,.2,0l3.7,5c.1.2.3.4.4.5.1.2.3.3.5.4.2,0,.4.1.6,0v.2c0,0-2,.6-2,.6v-.2c0,0,.7-.2.7-.2h0ZM45.4,8.5l-.8-1.2h0s0,1.4,0,1.4l.9-.3h0ZM50.7,11.7h.8c0-.1-.8-6.2-.8-6.2,0-.3-.3-.5-.7-.4h-.2s0-.2,0-.2l3.5-.5c.7,0,1.3,0,1.8,0,.5,0,1,.2,1.4.5.3.2.5.4.7.6.2.2.4.5.6.8.1.3.2.6.3.9,0,.9-.1,1.7-.7,2.5-.2.3-.5.6-.8.8-.3.2-.7.4-1.2.6-.5.2-1.1.3-1.7.4l-2.8.4v-.2h0ZM57.3,7.4c0-.6-.4-1-.8-1.5-.4-.4-.9-.8-1.5-1-.6-.2-1.3-.3-1.9-.2-.8.1-1.4.2-1.7.4l.8,6.1c.5,0,1.1,0,1.9,0,.7,0,1.3-.3,1.8-.7.5-.4.9-.9,1.2-1.4.3-.6.4-1.1.3-1.7h0ZM63.8,10.6h.8c0,0,.8-6,.8-6,0-.3-.2-.5-.6-.6h-.2s0-.2,0-.2l3.5.4c.7,0,1.3.2,1.7.4.5.2.9.5,1.2.8.2.2.4.5.6.8.2.3.3.6.3.9,0,.3,0,.6,0,.9-.1.9-.6,1.6-1.3,2.2-.3.2-.6.4-1,.6-.4.2-.8.3-1.3.3-.5,0-1.1,0-1.8,0l-2.8-.3v-.2h0ZM71.3,8c0-.6,0-1.1-.4-1.6-.3-.5-.7-1-1.3-1.3-.5-.4-1.2-.6-1.8-.7-.8,0-1.4,0-1.8,0l-.8,6.1c.4.2,1.1.4,1.9.4.7,0,1.3,0,1.9-.2.6-.2,1.1-.6,1.5-1.1.4-.5.6-1,.7-1.6h0ZM76.8,13.3l-3.8-1.1v-.2c0,0,.8.2.8.2l1.7-5.9c0-.2,0-.3,0-.5-.1-.1-.3-.2-.6-.3v-.2c0,0,3.9,1.1,3.9,1.1v-.4c.1,0,.3,0,.3,0l-.6,2.3h-.2c0,0,.1-.4.1-.4.2-.6.1-1-.2-1.2-.3-.2-.8-.4-1.5-.7h-.3c0,0-.5,1.6-.5,1.6l1.1.3.3-1h.2c0,0-.7,2.5-.7,2.5h-.2c0-.3.1-.6.1-.8,0-.2-.1-.4-.3-.5,0,0-.3-.1-.5-.2l-1.3,4.5c.5.1,1,.3,1.5.3.4,0,.6,0,.8-.3.2-.2.3-.4.4-.7v-.5c.1,0,.4,0,.4,0l-.7,2.5h-.2c0,0,.1-.5.1-.5h0ZM87.3,9.9v.2c0,0-.8-.3-.8-.3l-3,5.9c.4.2.7.3,1,.4.3.1.6.1.9.1.3,0,.5-.2.6-.5l.8-1.5h.2c0,.1-1.6,3.2-1.6,3.2h-.2c0-.1.2-.5.2-.5l-3.3-1.7v-.2c0,0,.7.3.7.3l2.8-5.5c0-.2,0-.3,0-.4,0-.1-.3-.2-.5-.4v-.2c0,0,2.1,1,2.1,1h0ZM91.2,20.1l-.7-.4v.2c-.1,0,1.7,1.1,1.7,1.1v-.2c0-.1-.2-.3-.3-.5,0-.2,0-.4,0-.6,0-.2,0-.4.1-.7l1.3-6.1h-.2c0-.1-5.6,4.9-5.6,4.9l-.5-.3v.2c-.1,0,1.8,1.2,1.8,1.2v-.2c-.1-.1-.3-.2-.4-.3-.2-.1-.3-.2-.3-.3,0-.1,0-.2,0-.4.1-.2.3-.4.5-.6l2.5-2.1.9.6-1,4.6h0ZM92.2,15.3l-.8-.5,1.1-1h0s-.3,1.4-.3,1.4h0ZM104.5,22.4l-2,1.9-.2-.2.5-.5c.3-.3.6-.6.7-.9.1-.3,0-.6-.3-1-.2-.2-.3-.3-.5-.3-.2,0-.4,0-.5,0-.2,0-.3.1-.5.2-.2.2-.3.4-.3.6,0,.3,0,.5,0,.8,0,.3.2.6.4,1.1.2.5.3.9.4,1.3,0,.4.1.7,0,1,0,.3-.2.6-.5.9-.3.2-.6.4-.9.5-.3,0-.7,0-1.1,0-.4,0-.7-.2-1.1-.4-.4-.2-.7-.5-1-.8-.4-.4-.7-.9-.9-1.3-.2-.5-.3-.9-.2-1.4,0-.4.3-.8.6-1.1.3-.3.6-.4.9-.5.4,0,.7,0,1.1,0,.4.1.7.3,1,.6.2.2.3.4.4.7.1.3.2.5.2.8,0,.2,0,.4-.3.6-.2.2-.4.2-.6.2-.2,0-.5-.1-.6-.3,0,0-.1-.1-.2-.2h.2c.3.1.6.1.8-.1.1,0,.2-.2.2-.4,0-.2,0-.4,0-.5,0-.2-.2-.4-.3-.5-.2-.2-.5-.4-.8-.4-.3,0-.6,0-.8,0-.3,0-.5.2-.7.4-.3.3-.5.6-.6,1,0,.4,0,.8,0,1.2.1.4.4.8.7,1.2.3.3.7.6,1.1.8.4.2.8.3,1.2.2.4,0,.7-.2,1-.4.2-.2.3-.5.4-.8,0-.3,0-.6,0-.9,0-.3-.2-.7-.4-1.2-.2-.4-.3-.8-.3-1.1,0-.3,0-.6,0-.9,0-.3.2-.5.4-.7.3-.3.7-.4,1.1-.3.4,0,.8.3,1.2.6.1.2.3.4.5.8l.3-.3.2.2h0ZM103.2,33l-.3.2v.2c.1,0,2.2-1.5,2.2-1.5v-.2c-.1,0-.6.3-.6.3-.3.2-.5.3-.8.3-.3,0-.5,0-.8-.3-.3-.4-.6-.8-.9-1.2l3.8-2.7c.2.2.2.4.3.5,0,.2,0,.4,0,.6-.1.2-.3.4-.6.5v.2c.1,0,2.2-1.5,2.2-1.5v-.2c-.1,0-1,.6-1,.6l-.6-.9,1.4-1,.2.3c.5.6.7,1.1.8,1.5,0,.4-.2.7-.6,1l-.3.2v.2c.1,0,2.1-1.4,2.1-1.4v-.2c-.1,0-.5.3-.5.3l-2.3-3.2h-.2c.2.3.2.5.3.7,0,.2,0,.3-.2.4l-5,3.6-.4-.6h-.2c0,.1,2.3,3.3,2.3,3.3h0ZM110.6,31.2l.7,1.4-.6.3c.8.5,1.4,1.1,1.8,1.8.3.5.4,1.1.5,1.8,0,.6,0,1.2-.3,1.7-.2.5-.6.9-1,1.1-.5.3-1,.3-1.6.3-.6,0-1.1-.3-1.6-.7-.5-.4-.9-.9-1.2-1.4h0c0,.2,0,.6,0,1.1,0,.6,0,1,.2,1.4,0,.4.2.7.4,1,.1.2.2.4.4.5h0c-.3,0-.5-.2-.7-.6-.1-.3-.3-.6-.4-.9,0-.3-.2-.6-.2-.9,0-.3-.1-.7-.2-1.2-.1-1.1-.2-2-.2-2.7l-.9.5c-.1,0-.2.1-.3.2,0,0,0,.2,0,.3,0,.1.1.3.2.4,0,0,.1.2.2.3h-.2c0,0-1.2-2.2-1.2-2.2h.2c0,0,.3.5.3.5l5.5-2.8c.3-.1.3-.4.1-.8h0c0-.1.2-.2.2-.2h0ZM110.3,33c.8.3,1.4.8,1.8,1.5.3.5.4,1.1.4,1.6,0,.6-.1,1.1-.4,1.5-.2.5-.6.8-1,1-.4.2-.8.3-1.3.2-.5,0-.9-.2-1.3-.5-.4-.3-.7-.7-1-1.1-.3-.6-.4-1.4-.4-2.5h-.2s3.4-1.8,3.4-1.8h0ZM109.6,46.6h-.4c0,.1,0,.4,0,.4l2.4-.8v-.2c0,0-.6.2-.6.2-.3.1-.6.1-.9,0-.3,0-.5-.2-.7-.5-.2-.4-.4-.9-.6-1.4l4.4-1.5c0,.3.1.4.1.6,0,.2,0,.4-.3.6-.2.1-.4.2-.7.3v.2c0,0,2.5-.8,2.5-.8v-.2c0,0-1.1.3-1.1.3l-.4-1,1.6-.6v.3c.4.7.5,1.3.4,1.6,0,.4-.4.6-.9.8h-.4c0,.1,0,.3,0,.3l2.2-.8v-.2c0,0-.5.1-.5.1l-1.3-3.8h-.2c0,.3.1.5,0,.7,0,.2-.1.3-.3.3l-5.8,2-.2-.7h-.2c0,0,1.3,3.8,1.3,3.8h0ZM110.4,48.5v.7c.1,0,5.7-1,5.7-1,.3,0,.5-.1.6-.2.2-.1.2-.4.2-.9h.2s.2,1.2.2,1.2l-5.2,4.3h0s4.8-.9,4.8-.9c.2,0,.4-.1.5-.3.1-.2.1-.4,0-.6h.2s.3,1.8.3,1.8h-.2s-.1-.6-.1-.6l-7.1,1.3v-.2s5.2-4.3,5.2-4.3h0s-4.4.8-4.4.8c-.3,0-.6.2-.7.4,0,.2,0,.4,0,.7h-.2s-.3-1.9-.3-1.9h.2ZM111.9,59.8l4.2-2v-1c0,0-3.3-.7-3.3-.7-.3,0-.5,0-.8,0-.2,0-.3,0-.3.2,0,0,0,.2,0,.4,0,.1,0,.3,0,.6h-.2s-.2-2.2-.2-2.2h.2s0,.5,0,.5l7.3,1.5v.2s-5.6,2.6-5.6,2.6c-.2,0-.4.2-.6.3-.2,0-.4.2-.5.4-.1.2-.2.3-.2.6h-.2s-.2-2.1-.2-2.1h.2s0,.8,0,.8h0ZM116.4,57.7l1.3-.6h0s-1.4-.3-1.4-.3v.9Z"/>
      </g>
      <path class="st1" d="M52.8,112.2v-.6c.1,0,.4,0,.4,0l-.6,2.7h-.2c.1-.5.2-.9.2-1.2,0-.3,0-.5-.2-.7-.2-.2-.4-.4-.8-.6-.4-.2-.7-.3-1.1-.4-.8-.2-1.5-.2-2.1,0-.7.2-1.2.5-1.6.9-.4.4-.7.9-.8,1.5-.1.4-.1.9,0,1.4,0,.5.3.9.6,1.3.3.4.6.8,1.1,1.1.4.3.9.5,1.5.6.6.1,1.1.2,1.6,0,.5,0,1-.2,1.4-.4l.2.3c-.5.2-1,.4-1.6.4-.6,0-1.2,0-1.7,0-.8-.2-1.5-.5-2.1-1-.6-.5-1.1-1.1-1.3-1.7-.3-.7-.3-1.3-.2-1.9.1-.5.4-1,.7-1.4.4-.4.8-.7,1.3-1,.5-.2,1.1-.4,1.7-.4.6,0,1.2,0,1.8.1.8.2,1.5.5,2.2,1h0ZM62.5,119.7h.8s-.2-6.3-.2-6.3c0-.2,0-.3-.2-.4-.2,0-.4,0-.6,0v-.2s2.3,0,2.3,0v.2s-.7,0-.7,0l.2,6.1c0,.2,0,.3,0,.4,0,.1,0,.2.2.2.1,0,.3,0,.7,0v.2s-2.3,0-2.3,0v-.2h0ZM68.5,112.3v.2s-.7.1-.7.1l.8,6.7c.4,0,.8-.1,1.1-.2.3,0,.6-.2.8-.4.2-.2.3-.4.3-.8l-.2-1.7h.2s.4,3.4.4,3.4h-.2s0-.4,0-.4l-3.7.5v-.2s.7,0,.7,0l-.8-6.2c0-.2-.1-.3-.3-.3-.2,0-.4,0-.6,0v-.2s2.3-.3,2.3-.3h0ZM77.7,117.8l-3.9.9v-.2s.7-.2.7-.2l-1.4-6c0-.2-.1-.3-.3-.4-.1,0-.4,0-.6,0v-.2s3.9-.9,3.9-.9v-.4c-.1,0,.1,0,.1,0l.5,2.3h-.2c0,0,0-.3,0-.3-.1-.6-.4-.9-.7-1-.3,0-.9,0-1.7.2h-.3c0,0,.4,1.8.4,1.8l1.1-.3-.2-1h.2s.6,2.5.6,2.5h-.2c0-.3-.2-.5-.3-.7-.1-.2-.3-.3-.5-.3-.1,0-.3,0-.6,0l1.1,4.6c.5-.1,1-.3,1.5-.4.3-.2.5-.4.6-.6,0-.2,0-.5,0-.9v-.5c-.1,0,.1,0,.1,0l.6,2.5h-.2c0,0,0-.4,0-.4h0ZM59.6,112.8l-.5,6.2c0,.2,0,.3,0,.4,0,0,.3.1.5.2,0,0,.1,0,.2,0v.2s-2.3-.2-2.3-.2v-.2s.8,0,.8,0l.4-4.7-2.7-.2-.3,4.2c0,.3,0,.4.2.5,0,0,.3,0,.6,0v.2s-2.3-.2-2.3-.2v-.2s.8,0,.8,0l.5-6.2c0-.3-.2-.5-.7-.5h-.2s0-.2,0-.2l2.3.2v.2s-.7,0-.7,0v1.8c-.1,0,2.6.2,2.6.2v-1.3c.1-.2,0-.3,0-.4-.1,0-.3-.1-.5-.2h-.2s0-.2,0-.2l2.3.2v.2s-.8,0-.8,0Z"/>
    </g>
  </g>
  <g>
    <path class="st3" d="M136.3,31.8h3.3v11.8c0,2.5,1.6,3.9,4.1,3.9s4.1-1.4,4.1-3.9v-11.8h3.4v11.8c0,4.1-3,6.9-7.4,6.9s-7.5-2.8-7.5-6.9v-11.8Z"/>
    <path class="st3" d="M156.1,31.8h3.4l7,10.6c.7,1.1,1.5,2.9,1.5,2.9h0s-.2-1.8-.2-2.9v-10.6h3.3v18.4h-3.3l-7-10.6c-.7-1.1-1.5-2.9-1.5-2.9h0s.2,1.8.2,2.9v10.6h-3.4v-18.4Z"/>
    <path class="st3" d="M176.3,31.8h3.4v18.4h-3.4v-18.4Z"/>
    <path class="st3" d="M182.5,31.8h3.6l4.1,12c.4,1.1.7,2.7.7,2.7h0s.3-1.6.7-2.7l4.1-12h3.6l-6.7,18.4h-3.3l-6.7-18.4Z"/>
    <path class="st3" d="M202.1,31.8h11v2.9h-7.7v4.8h6.2v2.9h-6.2v5h8.1v2.9h-11.5v-18.4Z"/>
    <path class="st3" d="M217.6,31.8h5.9c2,0,2.9.2,3.7.5,1.8.8,3,2.6,3,5s-1.2,4.3-3.1,5h0c0,0,.3.3.6,1l3.8,6.9h-3.7l-3.7-6.9h-3.2v6.9h-3.4v-18.4ZM223.9,40.4c1.8,0,2.9-1.1,2.9-2.9s-.8-2.9-3.4-2.9h-2.5v5.8h3Z"/>
    <path class="st3" d="M235.6,45.5s2,1.9,4.6,1.9,2.7-.7,2.7-2.2c0-3.3-8.7-2.7-8.7-8.4s2.6-5.3,6.2-5.3,5.5,2,5.5,2l-1.5,2.7s-1.8-1.6-4.1-1.6-2.8.9-2.8,2.2c0,3.3,8.7,2.5,8.7,8.4s-2.2,5.4-6.1,5.4-6.4-2.5-6.4-2.5l1.8-2.5Z"/>
    <path class="st3" d="M250.1,31.8h3.4v18.4h-3.4v-18.4Z"/>
    <path class="st3" d="M258.6,31.8h6.3c5.7,0,9.4,3.4,9.4,9.2s-3.7,9.2-9.4,9.2h-6.3v-18.4ZM264.7,47.3c3.7,0,6.1-2.2,6.1-6.4s-2.4-6.3-6.1-6.3h-2.8v12.7h2.8Z"/>
    <path class="st3" d="M287.4,45.5h-6.5l-1.6,4.7h-3.5l6.5-18.4h3.5l6.5,18.4h-3.5l-1.6-4.7ZM284.2,35s-.4,1.8-.8,2.9l-1.6,4.9h4.8l-1.6-4.9c-.3-1-.7-2.9-.7-2.9h0Z"/>
    <path class="st3" d="M295.3,31.8h6.3c5.7,0,9.4,3.4,9.4,9.2s-3.7,9.2-9.4,9.2h-6.3v-18.4ZM301.4,47.3c3.7,0,6.1-2.2,6.1-6.4s-2.4-6.3-6.1-6.3h-2.8v12.7h2.8Z"/>
  </g>
  <g>
    <path class="st3" d="M136.8,58.1h5.9c5.5,0,9.2,3.3,9.2,9.1s-3.7,9.1-9.2,9.1h-5.9v-18.3ZM142.6,74.8c4.5,0,7.5-2.6,7.5-7.5s-3-7.5-7.5-7.5h-3.9v15h3.9Z"/>
    <path class="st3" d="M156.3,58.1h10.3v1.6h-8.5v6.6h6.9v1.6h-6.9v6.8h9v1.6h-10.8v-18.3Z"/>
    <path class="st3" d="M178.7,58.1h1.8v16.6h8.5v1.6h-10.3v-18.3Z"/>
    <path class="st3" d="M201.4,70.6h-7.3l-2.1,5.8h-1.9l6.7-18.3h1.9l6.7,18.3h-1.9l-2.1-5.8ZM197.7,60s-.4,1.5-.7,2.4l-2.4,6.6h6.3l-2.4-6.6c-.3-.9-.7-2.4-.7-2.4h0Z"/>
    <path class="st3" d="M215.6,73s1.9,2,4.8,2,3.6-1.2,3.6-3.2c0-4.6-9.1-3.4-9.1-9.1s2.3-4.9,5.7-4.9,4.9,1.8,4.9,1.8l-.9,1.5s-1.6-1.6-4-1.6-3.8,1.5-3.8,3.1c0,4.3,9.1,3.1,9.1,9.1s-2.1,4.9-5.5,4.9-5.8-2.3-5.8-2.3l1.1-1.4Z"/>
    <path class="st3" d="M230.1,58.1h10.3v1.6h-8.5v6.6h6.9v1.6h-6.9v6.8h9v1.6h-10.8v-18.3Z"/>
    <path class="st3" d="M245.2,58.1h5.4c1.9,0,2.7.2,3.4.5,1.7.8,2.8,2.5,2.8,4.7s-1.4,4.4-3.5,4.9h0c0,0,.2.3.5.8l4,7.3h-2.1l-4.1-7.7h-4.6v7.7h-1.8v-18.3ZM251.3,67.1c2.2,0,3.6-1.4,3.6-3.7s-.6-2.6-1.7-3.2c-.5-.3-1.2-.4-2.6-.4h-3.7v7.3h4.3Z"/>
    <path class="st3" d="M261.8,58.1h10.3v1.6h-8.5v6.6h6.9v1.6h-6.9v6.8h9v1.6h-10.8v-18.3Z"/>
    <path class="st3" d="M276.9,58.1h1.7l9.3,13.1c.6.9,1.5,2.5,1.5,2.5h0s-.2-1.5-.2-2.5v-13.1h1.8v18.3h-1.7l-9.3-13.1c-.6-.9-1.5-2.5-1.5-2.5h0s.2,1.5.2,2.5v13.1h-1.8v-18.3Z"/>
    <path class="st3" d="M305.7,70.6h-7.3l-2.1,5.8h-1.9l6.7-18.3h1.9l6.7,18.3h-1.9l-2.1-5.8ZM302,60s-.4,1.5-.7,2.4l-2.4,6.6h6.3l-2.4-6.6c-.3-.9-.7-2.4-.7-2.4h0Z"/>
  </g>
  <g>
    <path class="st3" d="M140.7,83.2c2.2,0,3.3,1.2,3.3,1.2l-.5.7s-1.1-1-2.8-1-3.7,1.7-3.7,3.9,1.5,4,3.7,4,3-1.2,3-1.2l.5.6s-1.3,1.4-3.5,1.4-4.7-2.1-4.7-4.8,2-4.7,4.6-4.7Z"/>
    <path class="st3" d="M146.3,83.4h.9v4.2h5.3v-4.2h.9v9.2h-.9v-4.2h-5.3v4.2h-.9v-9.2Z"/>
    <path class="st3" d="M156.3,83.4h.9v9.2h-.9v-9.2Z"/>
    <path class="st3" d="M160,83.4h.9v8.4h4.3v.8h-5.2v-9.2Z"/>
    <path class="st3" d="M166.9,83.4h5.2v.8h-4.3v3.4h3.5v.8h-3.5v3.4h4.5v.8h-5.4v-9.2Z"/>
  </g>
</svg>